<svg width="24" height="24" viewBox="0 0 24 24" fill="none" xmlns="http://www.w3.org/2000/svg">
  <path d="M12.22 2H11.78C11.1627 1.99971 10.5591 2.19694 10.07 2.56L9.69 2.87C9.33714 3.16016 8.89531 3.32782 8.43922 3.34451C7.98314 3.36119 7.54077 3.22588 7.18 2.96L6.87 2.73C6.38622 2.37691 5.79727 2.22452 5.20239 2.30006C4.60751 2.3756 4.04351 2.67447 3.61 3.14L3.3 3.48C2.88371 3.93122 2.6322 4.51262 2.60002 5.12267C2.56784 5.73273 2.75691 6.33446 3.13 6.83L3.39 7.17C3.65991 7.52554 3.80373 7.96263 3.79737 8.40748C3.791 8.85233 3.63486 9.27764 3.35 9.61L3.09 9.92C2.70997 10.3732 2.49397 10.9427 2.48398 11.5332C2.474 12.1238 2.67067 12.6997 3.04 13.16L3.35 13.55C3.76679 14.0722 3.9723 14.7335 3.92316 15.3976C3.87402 16.0617 3.574 16.677 3.07 17.11L2.73 17.4C2.26027 17.8093 1.9686 18.3962 1.93049 19.0195C1.89239 19.6428 2.11059 20.2582 2.53 20.71L2.83 21.03C3.28637 21.5204 3.89931 21.7821 4.53835 21.7595C5.17738 21.737 5.79246 21.4321 6.25 20.91L6.5 20.63C6.79213 20.297 7.18956 20.068 7.62545 19.9813C8.06134 19.8946 8.50917 19.9555 8.89 20.154L9.22 20.32C9.77332 20.6009 10.2372 21.0475 10.5422 21.593C10.8471 22.1385 10.9765 22.7533 10.91 23.34L10.86 23.78C10.7937 24.4716 11.0289 25.1633 11.5132 25.6623C11.9976 26.1613 12.6826 26.4173 13.37 26.37H13.82C14.4447 26.3312 15.0298 26.0694 15.4651 25.6338C15.9004 25.1983 16.1558 24.6189 16.18 24L16.2 23.57C16.2163 23.1118 16.3725 22.673 16.6418 22.33C16.9112 21.987 17.2768 21.7615 17.675 21.6931C18.0732 21.6247 18.4791 21.7176 18.8223 21.9556C19.1656 22.1935 19.4249 22.5613 19.55 22.99L19.67 23.39C19.8505 23.9934 20.2587 24.5028 20.8122 24.8157C21.3658 25.1287 22.0232 25.2222 22.65 25.077L23.08 24.97C23.6871 24.821 24.2125 24.4379 24.5557 23.8943C24.8988 23.3507 25.0357 22.6849 24.94 22.025L24.87 21.57C24.7892 21.0315 24.8777 20.4831 25.123 19.9997C25.3683 19.5163 25.7583 19.1215 26.24 18.87L26.65 18.66C27.2439 18.3512 27.6975 17.8257 27.9179 17.1917C28.1384 16.5577 28.1091 15.8631 27.835 15.25L27.64 14.82C27.3621 14.2201 27.3236 13.535 27.5312 12.9137C27.7388 12.2924 28.1758 11.7854 28.746 11.492L29.13 11.29C29.6997 10.9932 30.1373 10.4939 30.3551 9.8912C30.573 9.2885 30.555 8.62677 30.305 8.037L30.13 7.63C29.8789 7.02562 29.3887 6.54077 28.7615 6.27552C28.1343 6.01027 27.4178 5.98485 26.76 6.205L26.31 6.36C25.8676 6.50571 25.3916 6.51664 24.9429 6.39139C24.4942 6.26613 24.0933 6.01046 23.7915 5.65691C23.4897 5.30335 23.3006 4.86811 23.2483 4.40695C23.1961 3.9458 23.2831 3.47999 23.498 3.069L23.65 2.78C23.967 2.18524 23.9992 1.4842 23.74 0.865L23.56 0.45C23.2838 -0.191599 22.747 -0.687353 22.0963 -0.90226C21.4455 -1.11717 20.7483 -1.0289 20.17 0.66L19.78 0.17C19.4974 -0.18725 19.0886 -0.428932 18.6366 -0.518663C18.1847 -0.608394 17.723 -0.539825 17.34 0.32L16.92 0.53C16.3662 0.806259 15.7197 0.852336 15.132 0.657519C14.5443 0.462702 14.0664 0.0438332 13.81 0.56L13.63 0.91C13.3571 1.45524 12.8711 1.86227 12.288 2.049L12.22 2Z" stroke="currentColor" stroke-width="2" stroke-linecap="round" stroke-linejoin="round"/>
  <circle cx="12" cy="12" r="3" stroke="currentColor" stroke-width="2" stroke-linecap="round" stroke-linejoin="round"/>
</svg>